<mxfile host="app.diagrams.net" modified="2023-05-04T16:08:23.854Z" agent="Mozilla/5.0 (Windows NT 10.0; Win64; x64; rv:109.0) Gecko/20100101 Firefox/112.0" etag="VEwhBF203cii6IMMjPWB" version="21.1.9" type="device">
  <diagram name="Page-1" id="13e1069c-82ec-6db2-03f1-153e76fe0fe0">
    <mxGraphModel dx="1644" dy="633" grid="1" gridSize="10" guides="1" tooltips="1" connect="1" arrows="1" fold="1" page="1" pageScale="1" pageWidth="1100" pageHeight="850" background="none" math="0" shadow="0">
      <root>
        <mxCell id="0" />
        <mxCell id="1" parent="0" />
        <mxCell id="7baba1c4bc27f4b0-2" value=":Criteria Screen" style="shape=umlLifeline;perimeter=lifelinePerimeter;whiteSpace=wrap;html=1;container=1;collapsible=0;recursiveResize=0;outlineConnect=0;rounded=1;shadow=0;comic=0;labelBackgroundColor=none;strokeWidth=1;fontFamily=Verdana;fontSize=12;align=center;" parent="1" vertex="1">
          <mxGeometry x="240" y="80" width="100" height="1010" as="geometry" />
        </mxCell>
        <mxCell id="0dD4uoadXfekZaIsLqY9-20" value="" style="html=1;points=[];perimeter=orthogonalPerimeter;outlineConnect=0;targetShapes=umlLifeline;portConstraint=eastwest;newEdgeStyle={&quot;edgeStyle&quot;:&quot;elbowEdgeStyle&quot;,&quot;elbow&quot;:&quot;vertical&quot;,&quot;curved&quot;:0,&quot;rounded&quot;:0};" parent="7baba1c4bc27f4b0-2" vertex="1">
          <mxGeometry x="45" y="70" width="10" height="80" as="geometry" />
        </mxCell>
        <mxCell id="7baba1c4bc27f4b0-3" value=":DetailsScreen" style="shape=umlLifeline;perimeter=lifelinePerimeter;whiteSpace=wrap;html=1;container=1;collapsible=0;recursiveResize=0;outlineConnect=0;rounded=1;shadow=0;comic=0;labelBackgroundColor=none;strokeWidth=1;fontFamily=Verdana;fontSize=12;align=center;" parent="1" vertex="1">
          <mxGeometry x="400" y="80" width="100" height="1010" as="geometry" />
        </mxCell>
        <mxCell id="6SwhFIK-PpO4X8iCb4ti-24" value="" style="html=1;points=[];perimeter=orthogonalPerimeter;outlineConnect=0;targetShapes=umlLifeline;portConstraint=eastwest;newEdgeStyle={&quot;edgeStyle&quot;:&quot;elbowEdgeStyle&quot;,&quot;elbow&quot;:&quot;vertical&quot;,&quot;curved&quot;:0,&quot;rounded&quot;:0};" vertex="1" parent="7baba1c4bc27f4b0-3">
          <mxGeometry x="45" y="340" width="10" height="40" as="geometry" />
        </mxCell>
        <mxCell id="7baba1c4bc27f4b0-4" value=":EventScore" style="shape=umlLifeline;perimeter=lifelinePerimeter;whiteSpace=wrap;html=1;container=1;collapsible=0;recursiveResize=0;outlineConnect=0;rounded=1;shadow=0;comic=0;labelBackgroundColor=none;strokeWidth=1;fontFamily=Verdana;fontSize=12;align=center;" parent="1" vertex="1">
          <mxGeometry x="540" y="80" width="100" height="1010" as="geometry" />
        </mxCell>
        <mxCell id="7baba1c4bc27f4b0-5" value=":AvailabilityScreen" style="shape=umlLifeline;perimeter=lifelinePerimeter;whiteSpace=wrap;html=1;container=1;collapsible=0;recursiveResize=0;outlineConnect=0;rounded=1;shadow=0;comic=0;labelBackgroundColor=none;strokeWidth=1;fontFamily=Verdana;fontSize=12;align=center;" parent="1" vertex="1">
          <mxGeometry x="680" y="80" width="110" height="1010" as="geometry" />
        </mxCell>
        <mxCell id="0dD4uoadXfekZaIsLqY9-40" value="" style="html=1;points=[];perimeter=orthogonalPerimeter;outlineConnect=0;targetShapes=umlLifeline;portConstraint=eastwest;newEdgeStyle={&quot;edgeStyle&quot;:&quot;elbowEdgeStyle&quot;,&quot;elbow&quot;:&quot;vertical&quot;,&quot;curved&quot;:0,&quot;rounded&quot;:0};" parent="7baba1c4bc27f4b0-5" vertex="1">
          <mxGeometry x="45" y="380" width="10" height="400" as="geometry" />
        </mxCell>
        <mxCell id="0dD4uoadXfekZaIsLqY9-41" value="getAvailableDates()" style="html=1;verticalAlign=bottom;startArrow=oval;endArrow=block;startSize=8;edgeStyle=elbowEdgeStyle;elbow=vertical;curved=0;rounded=0;" parent="7baba1c4bc27f4b0-5" target="0dD4uoadXfekZaIsLqY9-40" edge="1">
          <mxGeometry relative="1" as="geometry">
            <mxPoint x="-230" y="380" as="sourcePoint" />
            <mxPoint x="40" y="380" as="targetPoint" />
          </mxGeometry>
        </mxCell>
        <mxCell id="7baba1c4bc27f4b0-6" value=":StartingScreen" style="shape=umlLifeline;perimeter=lifelinePerimeter;whiteSpace=wrap;html=1;container=1;collapsible=0;recursiveResize=0;outlineConnect=0;rounded=1;shadow=0;comic=0;labelBackgroundColor=none;strokeWidth=1;fontFamily=Verdana;fontSize=12;align=center;" parent="1" vertex="1">
          <mxGeometry x="820" y="80" width="100" height="1010" as="geometry" />
        </mxCell>
        <mxCell id="0dD4uoadXfekZaIsLqY9-50" value="" style="html=1;points=[];perimeter=orthogonalPerimeter;outlineConnect=0;targetShapes=umlLifeline;portConstraint=eastwest;newEdgeStyle={&quot;edgeStyle&quot;:&quot;elbowEdgeStyle&quot;,&quot;elbow&quot;:&quot;vertical&quot;,&quot;curved&quot;:0,&quot;rounded&quot;:0};" parent="7baba1c4bc27f4b0-6" vertex="1">
          <mxGeometry x="45" y="660" width="10" height="40" as="geometry" />
        </mxCell>
        <mxCell id="7baba1c4bc27f4b0-7" value=":EventParticipation" style="shape=umlLifeline;perimeter=lifelinePerimeter;whiteSpace=wrap;html=1;container=1;collapsible=0;recursiveResize=0;outlineConnect=0;rounded=1;shadow=0;comic=0;labelBackgroundColor=none;strokeWidth=1;fontFamily=Verdana;fontSize=12;align=center;" parent="1" vertex="1">
          <mxGeometry x="960" y="500" width="120" height="590" as="geometry" />
        </mxCell>
        <mxCell id="7baba1c4bc27f4b0-8" value=":EventsScreen" style="shape=umlLifeline;perimeter=lifelinePerimeter;whiteSpace=wrap;html=1;container=1;collapsible=0;recursiveResize=0;outlineConnect=0;rounded=1;shadow=0;comic=0;labelBackgroundColor=none;strokeWidth=1;fontFamily=Verdana;fontSize=12;align=center;" parent="1" vertex="1">
          <mxGeometry x="100" y="80" width="100" height="1010" as="geometry" />
        </mxCell>
        <mxCell id="0dD4uoadXfekZaIsLqY9-34" value="" style="html=1;points=[];perimeter=orthogonalPerimeter;outlineConnect=0;targetShapes=umlLifeline;portConstraint=eastwest;newEdgeStyle={&quot;edgeStyle&quot;:&quot;elbowEdgeStyle&quot;,&quot;elbow&quot;:&quot;vertical&quot;,&quot;curved&quot;:0,&quot;rounded&quot;:0};" parent="7baba1c4bc27f4b0-8" vertex="1">
          <mxGeometry x="45" y="150" width="10" height="190" as="geometry" />
        </mxCell>
        <mxCell id="0dD4uoadXfekZaIsLqY9-35" value="selectEvent()" style="html=1;verticalAlign=bottom;startArrow=oval;endArrow=block;startSize=8;edgeStyle=elbowEdgeStyle;elbow=vertical;curved=0;rounded=0;" parent="7baba1c4bc27f4b0-8" target="0dD4uoadXfekZaIsLqY9-34" edge="1">
          <mxGeometry relative="1" as="geometry">
            <mxPoint x="-60" y="230" as="sourcePoint" />
          </mxGeometry>
        </mxCell>
        <mxCell id="6SwhFIK-PpO4X8iCb4ti-20" value="displayEvent()" style="html=1;verticalAlign=bottom;endArrow=block;edgeStyle=elbowEdgeStyle;elbow=vertical;curved=0;rounded=0;" edge="1" parent="7baba1c4bc27f4b0-8" target="7baba1c4bc27f4b0-3">
          <mxGeometry width="80" relative="1" as="geometry">
            <mxPoint x="50" y="340" as="sourcePoint" />
            <mxPoint x="130" y="340" as="targetPoint" />
          </mxGeometry>
        </mxCell>
        <mxCell id="0dD4uoadXfekZaIsLqY9-4" value="" style="shape=umlLifeline;perimeter=lifelinePerimeter;whiteSpace=wrap;html=1;container=1;dropTarget=0;collapsible=0;recursiveResize=0;outlineConnect=0;portConstraint=eastwest;newEdgeStyle={&quot;edgeStyle&quot;:&quot;elbowEdgeStyle&quot;,&quot;elbow&quot;:&quot;vertical&quot;,&quot;curved&quot;:0,&quot;rounded&quot;:0};participant=umlActor;" parent="1" vertex="1">
          <mxGeometry x="30" y="80" width="20" height="1010" as="geometry" />
        </mxCell>
        <mxCell id="0dD4uoadXfekZaIsLqY9-36" value="" style="html=1;points=[];perimeter=orthogonalPerimeter;outlineConnect=0;targetShapes=umlLifeline;portConstraint=eastwest;newEdgeStyle={&quot;edgeStyle&quot;:&quot;elbowEdgeStyle&quot;,&quot;elbow&quot;:&quot;vertical&quot;,&quot;curved&quot;:0,&quot;rounded&quot;:0};" parent="0dD4uoadXfekZaIsLqY9-4" vertex="1">
          <mxGeometry x="5" y="70" width="10" height="700" as="geometry" />
        </mxCell>
        <mxCell id="0dD4uoadXfekZaIsLqY9-5" value="&lt;div&gt;Οθόνη διαθέσιμων&lt;/div&gt;&lt;div&gt;εκδηλώσεων&lt;br&gt;&lt;/div&gt;" style="shape=umlBoundary;whiteSpace=wrap;html=1;" parent="1" vertex="1">
          <mxGeometry x="110" width="80" height="70" as="geometry" />
        </mxCell>
        <mxCell id="0dD4uoadXfekZaIsLqY9-7" value="Οθόνη επιλογής κριτηρίων αναζήτησης" style="shape=umlBoundary;whiteSpace=wrap;html=1;" parent="1" vertex="1">
          <mxGeometry x="250" width="80" height="70" as="geometry" />
        </mxCell>
        <mxCell id="0dD4uoadXfekZaIsLqY9-8" value="&lt;div&gt;Οθόνη λεπτομερών&lt;/div&gt;&lt;div&gt;στοιχείων εκδήλωσης&lt;br&gt;&lt;/div&gt;" style="shape=umlBoundary;whiteSpace=wrap;html=1;" parent="1" vertex="1">
          <mxGeometry x="410" width="80" height="70" as="geometry" />
        </mxCell>
        <mxCell id="0dD4uoadXfekZaIsLqY9-9" value="Score" style="ellipse;shape=umlEntity;whiteSpace=wrap;html=1;" parent="1" vertex="1">
          <mxGeometry x="560" y="8" width="60" height="55" as="geometry" />
        </mxCell>
        <mxCell id="0dD4uoadXfekZaIsLqY9-10" value="&lt;div&gt;Οθόνη διαθέσιμων ωρών και&lt;/div&gt;&lt;div&gt;ημ/νιων&lt;br&gt;&lt;/div&gt;" style="shape=umlBoundary;whiteSpace=wrap;html=1;" parent="1" vertex="1">
          <mxGeometry x="690" y="1" width="80" height="70" as="geometry" />
        </mxCell>
        <mxCell id="0dD4uoadXfekZaIsLqY9-11" value="Αρχική οθόνη" style="shape=umlBoundary;whiteSpace=wrap;html=1;" parent="1" vertex="1">
          <mxGeometry x="830" width="80" height="70" as="geometry" />
        </mxCell>
        <mxCell id="0dD4uoadXfekZaIsLqY9-12" value="Συμμετοχή σε event" style="ellipse;shape=umlEntity;whiteSpace=wrap;html=1;" parent="1" vertex="1">
          <mxGeometry x="980" y="440" width="60" height="55" as="geometry" />
        </mxCell>
        <mxCell id="0dD4uoadXfekZaIsLqY9-13" value="Event" style="ellipse;shape=umlEntity;whiteSpace=wrap;html=1;" parent="1" vertex="1">
          <mxGeometry x="1110" y="7.5" width="60" height="55" as="geometry" />
        </mxCell>
        <mxCell id="0dD4uoadXfekZaIsLqY9-14" value="Invite Link" style="ellipse;shape=umlEntity;whiteSpace=wrap;html=1;" parent="1" vertex="1">
          <mxGeometry x="1230" y="547.5" width="60" height="55" as="geometry" />
        </mxCell>
        <mxCell id="0dD4uoadXfekZaIsLqY9-15" value="Οθόνη με το προσωπικό invite link" style="shape=umlBoundary;whiteSpace=wrap;html=1;" parent="1" vertex="1">
          <mxGeometry x="1360" y="1" width="80" height="70" as="geometry" />
        </mxCell>
        <mxCell id="0dD4uoadXfekZaIsLqY9-17" value=":Event" style="shape=umlLifeline;perimeter=lifelinePerimeter;whiteSpace=wrap;html=1;container=1;collapsible=0;recursiveResize=0;outlineConnect=0;rounded=1;shadow=0;comic=0;labelBackgroundColor=none;strokeWidth=1;fontFamily=Verdana;fontSize=12;align=center;" parent="1" vertex="1">
          <mxGeometry x="1090" y="70" width="100" height="1020" as="geometry" />
        </mxCell>
        <mxCell id="6SwhFIK-PpO4X8iCb4ti-7" value="" style="html=1;points=[];perimeter=orthogonalPerimeter;outlineConnect=0;targetShapes=umlLifeline;portConstraint=eastwest;newEdgeStyle={&quot;edgeStyle&quot;:&quot;elbowEdgeStyle&quot;,&quot;elbow&quot;:&quot;vertical&quot;,&quot;curved&quot;:0,&quot;rounded&quot;:0};" vertex="1" parent="0dD4uoadXfekZaIsLqY9-17">
          <mxGeometry x="45" y="482.5" width="10" height="47.5" as="geometry" />
        </mxCell>
        <mxCell id="6SwhFIK-PpO4X8iCb4ti-11" value="" style="html=1;points=[];perimeter=orthogonalPerimeter;outlineConnect=0;targetShapes=umlLifeline;portConstraint=eastwest;newEdgeStyle={&quot;edgeStyle&quot;:&quot;elbowEdgeStyle&quot;,&quot;elbow&quot;:&quot;vertical&quot;,&quot;curved&quot;:0,&quot;rounded&quot;:0};" vertex="1" parent="0dD4uoadXfekZaIsLqY9-17">
          <mxGeometry x="45" y="270" width="10" height="40" as="geometry" />
        </mxCell>
        <mxCell id="6SwhFIK-PpO4X8iCb4ti-27" value="createInviteLink()" style="html=1;verticalAlign=bottom;endArrow=block;edgeStyle=elbowEdgeStyle;elbow=vertical;curved=0;rounded=0;" edge="1" parent="0dD4uoadXfekZaIsLqY9-17" source="0dD4uoadXfekZaIsLqY9-40">
          <mxGeometry x="0.0306" width="80" relative="1" as="geometry">
            <mxPoint x="40" y="560.06" as="sourcePoint" />
            <mxPoint x="120" y="560.06" as="targetPoint" />
            <mxPoint as="offset" />
          </mxGeometry>
        </mxCell>
        <mxCell id="0dD4uoadXfekZaIsLqY9-18" value=":InviteLink" style="shape=umlLifeline;perimeter=lifelinePerimeter;whiteSpace=wrap;html=1;container=1;collapsible=0;recursiveResize=0;outlineConnect=0;rounded=1;shadow=0;comic=0;labelBackgroundColor=none;strokeWidth=1;fontFamily=Verdana;fontSize=12;align=center;" parent="1" vertex="1">
          <mxGeometry x="1210" y="610" width="100" height="480" as="geometry" />
        </mxCell>
        <mxCell id="0dD4uoadXfekZaIsLqY9-19" value=":LinkScreen" style="shape=umlLifeline;perimeter=lifelinePerimeter;whiteSpace=wrap;html=1;container=1;collapsible=0;recursiveResize=0;outlineConnect=0;rounded=1;shadow=0;comic=0;labelBackgroundColor=none;strokeWidth=1;fontFamily=Verdana;fontSize=12;align=center;" parent="1" vertex="1">
          <mxGeometry x="1350" y="80" width="100" height="1010" as="geometry" />
        </mxCell>
        <mxCell id="6SwhFIK-PpO4X8iCb4ti-29" value="" style="html=1;points=[];perimeter=orthogonalPerimeter;outlineConnect=0;targetShapes=umlLifeline;portConstraint=eastwest;newEdgeStyle={&quot;edgeStyle&quot;:&quot;elbowEdgeStyle&quot;,&quot;elbow&quot;:&quot;vertical&quot;,&quot;curved&quot;:0,&quot;rounded&quot;:0};" vertex="1" parent="0dD4uoadXfekZaIsLqY9-19">
          <mxGeometry x="45" y="600" width="10" height="80" as="geometry" />
        </mxCell>
        <mxCell id="0dD4uoadXfekZaIsLqY9-21" value="selectCriteria()" style="html=1;verticalAlign=bottom;startArrow=oval;endArrow=block;startSize=8;edgeStyle=elbowEdgeStyle;elbow=vertical;curved=0;rounded=0;" parent="1" source="0dD4uoadXfekZaIsLqY9-4" target="0dD4uoadXfekZaIsLqY9-20" edge="1">
          <mxGeometry relative="1" as="geometry">
            <mxPoint x="85" y="160" as="sourcePoint" />
            <Array as="points">
              <mxPoint x="220" y="150" />
              <mxPoint x="70" y="140" />
            </Array>
          </mxGeometry>
        </mxCell>
        <mxCell id="0dD4uoadXfekZaIsLqY9-33" value="refreshEventList()" style="html=1;verticalAlign=bottom;startArrow=oval;endArrow=block;startSize=8;edgeStyle=elbowEdgeStyle;elbow=vertical;curved=0;rounded=0;" parent="1" edge="1">
          <mxGeometry relative="1" as="geometry">
            <mxPoint x="290" y="230" as="sourcePoint" />
            <mxPoint x="155" y="230" as="targetPoint" />
          </mxGeometry>
        </mxCell>
        <mxCell id="0dD4uoadXfekZaIsLqY9-45" value="selectDateTime()" style="html=1;verticalAlign=bottom;endArrow=block;edgeStyle=elbowEdgeStyle;elbow=vertical;curved=0;rounded=0;strokeWidth=2;" parent="1" source="0dD4uoadXfekZaIsLqY9-36" target="0dD4uoadXfekZaIsLqY9-40" edge="1">
          <mxGeometry width="80" relative="1" as="geometry">
            <mxPoint x="640" y="540" as="sourcePoint" />
            <mxPoint x="720" y="540" as="targetPoint" />
            <Array as="points">
              <mxPoint x="610" y="500" />
              <mxPoint x="530" y="510" />
            </Array>
          </mxGeometry>
        </mxCell>
        <mxCell id="0dD4uoadXfekZaIsLqY9-47" value="quitEventSelection()" style="html=1;verticalAlign=bottom;endArrow=block;edgeStyle=elbowEdgeStyle;elbow=vertical;curved=0;rounded=0;strokeColor=#ef2929;strokeWidth=2;" parent="1" source="0dD4uoadXfekZaIsLqY9-36" target="0dD4uoadXfekZaIsLqY9-40" edge="1">
          <mxGeometry width="80" relative="1" as="geometry">
            <mxPoint x="55" y="540" as="sourcePoint" />
            <mxPoint x="725" y="540" as="targetPoint" />
            <Array as="points">
              <mxPoint x="670" y="720" />
              <mxPoint x="580" y="620" />
              <mxPoint x="490" y="590" />
              <mxPoint x="650" y="560" />
            </Array>
          </mxGeometry>
        </mxCell>
        <mxCell id="0dD4uoadXfekZaIsLqY9-55" value="Alternative" style="shape=umlFrame;whiteSpace=wrap;html=1;pointerEvents=0;strokeWidth=2;" parent="1" vertex="1">
          <mxGeometry x="20" y="480" width="910" height="400" as="geometry" />
        </mxCell>
        <mxCell id="0dD4uoadXfekZaIsLqY9-58" value="addInviteLink()" style="html=1;verticalAlign=bottom;endArrow=block;edgeStyle=elbowEdgeStyle;elbow=vertical;curved=0;rounded=0;strokeWidth=2;strokeColor=#ef2929;" parent="1" source="0dD4uoadXfekZaIsLqY9-36" target="0dD4uoadXfekZaIsLqY9-40" edge="1">
          <mxGeometry width="80" relative="1" as="geometry">
            <mxPoint x="60" y="660" as="sourcePoint" />
            <mxPoint x="720" y="660" as="targetPoint" />
            <Array as="points">
              <mxPoint x="670" y="830" />
              <mxPoint x="450" y="810" />
              <mxPoint x="580" y="760" />
              <mxPoint x="510" y="730" />
              <mxPoint x="460" y="700" />
              <mxPoint x="510" y="660" />
            </Array>
          </mxGeometry>
        </mxCell>
        <mxCell id="0dD4uoadXfekZaIsLqY9-54" value="showStratingScreen()" style="html=1;verticalAlign=bottom;endArrow=block;edgeStyle=elbowEdgeStyle;elbow=vertical;curved=0;rounded=0;strokeWidth=2;strokeColor=#ef2929;" parent="1" source="0dD4uoadXfekZaIsLqY9-40" edge="1" target="0dD4uoadXfekZaIsLqY9-50">
          <mxGeometry width="80" relative="1" as="geometry">
            <mxPoint x="740" y="580" as="sourcePoint" />
            <mxPoint x="865" y="580" as="targetPoint" />
            <Array as="points">
              <mxPoint x="790" y="740" />
              <mxPoint x="760" y="660" />
              <mxPoint x="760" y="650" />
              <mxPoint x="840" y="620" />
            </Array>
          </mxGeometry>
        </mxCell>
        <mxCell id="6SwhFIK-PpO4X8iCb4ti-3" value="createEventParticipation()" style="html=1;verticalAlign=bottom;endArrow=block;edgeStyle=elbowEdgeStyle;elbow=vertical;curved=0;rounded=0;" edge="1" parent="1" source="0dD4uoadXfekZaIsLqY9-40">
          <mxGeometry width="80" relative="1" as="geometry">
            <mxPoint x="870" y="520" as="sourcePoint" />
            <mxPoint x="960" y="520" as="targetPoint" />
          </mxGeometry>
        </mxCell>
        <mxCell id="6SwhFIK-PpO4X8iCb4ti-8" value="updateEventStats()" style="html=1;verticalAlign=bottom;endArrow=block;edgeStyle=elbowEdgeStyle;elbow=vertical;curved=0;rounded=0;" edge="1" parent="1" source="0dD4uoadXfekZaIsLqY9-40">
          <mxGeometry x="-0.334" width="80" relative="1" as="geometry">
            <mxPoint x="1060" y="550" as="sourcePoint" />
            <mxPoint x="1140" y="550" as="targetPoint" />
            <mxPoint x="-1" as="offset" />
          </mxGeometry>
        </mxCell>
        <mxCell id="6SwhFIK-PpO4X8iCb4ti-12" value="retEventInfo()" style="html=1;verticalAlign=bottom;endArrow=open;dashed=1;endSize=8;edgeStyle=elbowEdgeStyle;elbow=vertical;curved=0;rounded=0;" edge="1" parent="1" source="6SwhFIK-PpO4X8iCb4ti-11">
          <mxGeometry x="-0.0002" relative="1" as="geometry">
            <mxPoint x="1130" y="430" as="sourcePoint" />
            <mxPoint x="160" y="380" as="targetPoint" />
            <Array as="points">
              <mxPoint x="540" y="380" />
              <mxPoint x="790" y="430" />
            </Array>
            <mxPoint as="offset" />
          </mxGeometry>
        </mxCell>
        <mxCell id="6SwhFIK-PpO4X8iCb4ti-18" value="getEventDetails()" style="html=1;verticalAlign=bottom;endArrow=block;edgeStyle=elbowEdgeStyle;elbow=vertical;curved=0;rounded=0;" edge="1" parent="1" source="0dD4uoadXfekZaIsLqY9-34" target="0dD4uoadXfekZaIsLqY9-17">
          <mxGeometry width="80" relative="1" as="geometry">
            <mxPoint x="160" y="340" as="sourcePoint" />
            <mxPoint x="235" y="330" as="targetPoint" />
            <Array as="points">
              <mxPoint x="450" y="340" />
            </Array>
          </mxGeometry>
        </mxCell>
        <mxCell id="6SwhFIK-PpO4X8iCb4ti-25" value="" style="endArrow=none;dashed=1;html=1;rounded=0;strokeColor=#ff8000;strokeWidth=5;" edge="1" parent="1">
          <mxGeometry width="50" height="50" relative="1" as="geometry">
            <mxPoint x="20" y="794.41" as="sourcePoint" />
            <mxPoint x="930" y="794.41" as="targetPoint" />
          </mxGeometry>
        </mxCell>
        <mxCell id="6SwhFIK-PpO4X8iCb4ti-26" value="" style="endArrow=none;dashed=1;html=1;rounded=0;strokeColor=#ff8000;strokeWidth=5;" edge="1" parent="1">
          <mxGeometry width="50" height="50" relative="1" as="geometry">
            <mxPoint x="20" y="679" as="sourcePoint" />
            <mxPoint x="930" y="681" as="targetPoint" />
          </mxGeometry>
        </mxCell>
        <mxCell id="6SwhFIK-PpO4X8iCb4ti-30" value="showInviteLink()" style="html=1;verticalAlign=bottom;startArrow=oval;endArrow=block;startSize=8;edgeStyle=elbowEdgeStyle;elbow=vertical;curved=0;rounded=0;" edge="1" target="6SwhFIK-PpO4X8iCb4ti-29" parent="1">
          <mxGeometry relative="1" as="geometry">
            <mxPoint x="1260" y="680" as="sourcePoint" />
          </mxGeometry>
        </mxCell>
      </root>
    </mxGraphModel>
  </diagram>
</mxfile>
